<?xml version="1.0" ?><svg viewBox="0 0 22.089 22.157" xmlns="http://www.w3.org/2000/svg"><g data-name="Layer 2" id="Layer_2"><g data-name="Layer 1" id="Layer_1-2"><path d="M15.65,5.623c-.37-.413-5.356,4.865-1.953,10.331.105.279.992.121,1.483.16v5.707a.336.336,0,1,0,.671,0V5.931A.336.336,0,0,0,15.65,5.623Zm-.47,9.82H14.173A7.333,7.333,0,0,1,15.18,6.786Zm-6.49-.7v7.074a.336.336,0,0,1-.672,0V14.747A2.578,2.578,0,0,1,5.78,12.2V7.721a.336.336,0,0,1,.672,0V12.2a1.9,1.9,0,0,0,1.566,1.869V7.721a.336.336,0,1,1,.672,0v6.345A1.9,1.9,0,0,0,10.256,12.2V7.721a.336.336,0,0,1,.672,0V12.2A2.578,2.578,0,0,1,8.69,14.747Zm5.457,6.967a11.131,11.131,0,0,1-4.365.372.336.336,0,1,1,.075-.667,10.553,10.553,0,0,0,4.1-.349A.336.336,0,0,1,14.147,21.714Zm3.008-1.4a.336.336,0,0,1-.371-.559C25.315,14.077,21.3.71,11.039.672A10.408,10.408,0,0,0,7,20.674a.336.336,0,0,1-.261.619C-4.3,16.478-1.014.173,11.039,0,21.956.038,26.236,14.271,17.155,20.316ZM16.723,16.3a7.72,7.72,0,1,0-9.677,1.385.337.337,0,0,1-.174.622,8.134,8.134,0,0,1-4.226-7.233,8.393,8.393,0,1,1,14.572,5.68.336.336,0,0,1-.5-.454Zm-2.358,2.123c.46.9-5.12,1.546-4.877.566a.337.337,0,0,1,.382-.281,7.771,7.771,0,0,0,4.058-.471A.334.334,0,0,1,14.365,18.427Z" id="restaurant"/></g></g></svg>