<?xml version="1.0" encoding="iso-8859-1"?>
<!-- Generator: Adobe Illustrator 21.1.0, SVG Export Plug-In . SVG Version: 6.00 Build 0)  -->
<svg version="1.1" id="Layer_1" xmlns="http://www.w3.org/2000/svg" xmlns:xlink="http://www.w3.org/1999/xlink" x="0px" y="0px"
	 viewBox="0 0 24 24" enable-background="new 0 0 24 24" xml:space="preserve">
<g>
	<path fill="#303C42" d="M23,7c0-3.7568359-2.34375-6-6.269043-6c-1.7095337,0-3.8850098,0.6305542-5.8619995,1.6860962
		C9.6312866,2.2572021,8.3876953,2,7.269043,2C3.34375,2,1,4.2431641,1,8c0,2.6412354,1.8435059,4.6831055,4.012146,5.5480347
		L5,20.996582c-0.0009766,0.5351563,0.206543,1.0380859,0.5844727,1.4165039S6.4648438,23,7,23h10c1.1030273,0,2-0.8969727,2-2
		v-8.4573975C21.163269,11.6749268,23,9.6362915,23,7z"/>
	<path fill="#E6E6E5" d="M17,22H7c-0.2675781,0-0.519043-0.1040039-0.7080078-0.293457
		C6.1035156,21.5175781,5.9995117,21.2661133,6,20.9985352L6.0032349,19H18v2C18,21.5512695,17.5512695,22,17,22z"/>
	<path opacity="0.2" fill="#FFFFFF" d="M6.6749878,20.9985352L6.6778564,19H6.0032349L6,20.9985352
		c-0.0004883,0.2675781,0.1035156,0.519043,0.2919922,0.7080078C6.480957,21.8959961,6.7324219,22,7,22h0.5624976
		c-0.2374854,0-0.4606299-0.1040039-0.6283545-0.293457C6.7668457,21.5175781,6.6745605,21.2661133,6.6749878,20.9985352z"/>
	<path opacity="0.1" fill="#010101" d="M17.3250122,19v2c0,0.5512695-0.3982544,1-0.8875141,1H17c0.5512695,0,1-0.4487305,1-1v-2
		H17.3250122z"/>
	<path fill="#F3F3F3" d="M16.730957,12c-0.2763672,0-0.5,0.2236328-0.5,0.5s0.2236328,0.5,0.5,0.5
		C17.1508179,13,17.5769043,12.9454956,18,12.850647V18H6.0048828l0.0067749-4.1464844
		C6.4309082,13.9466553,6.8530273,14,7.269043,14c0.2763672,0,0.5-0.2236328,0.5-0.5s-0.2236328-0.5-0.5-0.5
		C4.7768555,13,2,10.9467773,2,8c0-4.5126953,3.6845703-5,5.269043-5c2.8925781,0,6.8632813,1.8950195,8.8505859,4.2246094
		c0.1801758,0.2104492,0.4951172,0.234375,0.7050781,0.0556641c0.2099609-0.1791992,0.2348633-0.4946289,0.0556641-0.7050781
		c-1.1652222-1.3656006-2.9094849-2.5615234-4.7660522-3.3929443C13.7252808,2.4362183,15.3939819,2,16.730957,2
		C18.3154297,2,22,2.4873047,22,7C22,9.9467773,19.2231445,12,16.730957,12z"/>
	<path opacity="0.2" fill="#FFFFFF" d="M7.1133881,12.9360361C5.1083598,12.5679626,3.125,10.6435385,3.125,8
		c0-4.1577148,2.772583-4.8966064,4.3091431-4.9874268C7.3805542,3.0112915,7.3218994,3,7.269043,3C5.6845703,3,2,3.4873047,2,8
		c0,2.9467773,2.7768555,5,5.269043,5C7.269043,13,7.3433838,12.9782572,7.1133881,12.9360361z"/>
	<path opacity="0.1" fill="#010101" d="M16.730957,12C19.2231445,12,22,9.9467773,22,7c0-4.5126953-3.6845703-5-5.269043-5
		c-0.0523682,0-0.1125488,0.0111694-0.1659546,0.0125122C18.1013184,2.1031494,20.875,2.8415527,20.875,7
		c0,2.7007332-2.0701103,4.650898-4.1185379,4.9577322C16.5698433,11.9856853,16.730957,12,16.730957,12z"/>
	<path opacity="0.2" fill="#FFFFFF" d="M6.0116577,13.8535156L6.0048828,18h0.6744385l0.0058594-4.0356445
		C6.4606934,13.9393311,6.2358398,13.9033203,6.0116577,13.8535156z"/>
	<path opacity="0.1" fill="#010101" d="M17.3250122,18H18v-5.149353c-0.2246704,0.050354-0.4500122,0.0872192-0.6749878,0.1126709
		V18z"/>
	<path fill="#303C42" d="M15,10.5c-0.9414063,0-1.4887695,0.1728516-1.9291992,0.3115234
		C12.7368164,10.9169922,12.4726563,11,12.0834961,11c-0.3364258,0-0.7080078-0.1503906-1.1787109-0.3408203
		C10.1791992,10.3657227,9.2758789,10,8,10c-0.2763672,0-0.5,0.2236328-0.5,0.5S7.7236328,11,8,11
		c1.081543,0,1.8510742,0.3115234,2.5297852,0.5859375C11.0556641,11.7988281,11.5522461,12,12.0834961,12
		c0.543457,0,0.921875-0.1191406,1.2880859-0.2348633C13.7851563,11.6347656,14.2128906,11.5,15,11.5
		c0.2763672,0,0.5-0.2236328,0.5-0.5S15.2763672,10.5,15,10.5z"/>
	<linearGradient id="SVGID_1_" gradientUnits="userSpaceOnUse" x1="0.903875" y1="6.5654368" x2="21.4664783" y2="16.1539364">
		<stop  offset="0" style="stop-color:#FFFFFF;stop-opacity:0.2"/>
		<stop  offset="1" style="stop-color:#FFFFFF;stop-opacity:0"/>
	</linearGradient>
	<path fill="url(#SVGID_1_)" d="M23,7c0-3.7568359-2.34375-6-6.269043-6c-1.7095337,0-3.8850098,0.6305542-5.8619995,1.6860962
		C9.6312866,2.2572021,8.3876953,2,7.269043,2C3.34375,2,1,4.2431641,1,8c0,2.6412354,1.8435059,4.6831055,4.012146,5.5480347
		L5,20.996582c-0.0009766,0.5351563,0.206543,1.0380859,0.5844727,1.4165039S6.4648438,23,7,23h10c1.1030273,0,2-0.8969727,2-2
		v-8.4573975C21.163269,11.6749268,23,9.6362915,23,7z"/>
</g>
<g>
</g>
<g>
</g>
<g>
</g>
<g>
</g>
<g>
</g>
<g>
</g>
<g>
</g>
<g>
</g>
<g>
</g>
<g>
</g>
<g>
</g>
<g>
</g>
<g>
</g>
<g>
</g>
<g>
</g>
</svg>
